<?xml version="1.0" encoding="UTF-8"?>
<svg id="svg2" xmlns="http://www.w3.org/2000/svg" viewBox="0 0 961.96 192.52">
  <defs>
    <style>
      .cls-1 {
        fill: #040606;
        stroke-width: 0px;
      }
    </style>
  </defs>
  <path id="path12" class="cls-1" d="m151.81,5.25s3.3,21.15,3.72,24.95c-9.52-11.14-28.63-21.27-62.89-21.27h-5.61v119.18c0,34.26,4.13,54.5,10.64,59.17h-39.79c6.51-4.67,10.63-24.91,10.63-59.17V8.93h-5.61C28.63,8.93,9.52,19.05,0,30.2.42,26.4,3.72,5.25,3.72,5.25h148.09"/>
  <path id="path14" class="cls-1" d="m256.47,187.27h-29.15v-.09l-.03.09h-10.64c16.38-15.19,12.79-76.8,0-87.06h10.64l.03.09v-.09h18.52v30.42c.2,32.72,4.28,52.07,10.63,56.63h0Zm-18.27-111.05c-31.93-29.11-74.06,3.15-74.06,37.95v16.47c.2,32.73,4.28,52.08,10.63,56.64h-29.15v-.09l-.03.09h-10.64c6.51-4.67,10.64-24.91,10.64-59.17l.03.17v-16.37c0-34.26-4.16-54.5-10.67-59.17h10.64l.03.09v-.09h18.52v43.06c9.51-27.89,40.59-48.31,82.42-48.31l-8.36,28.74"/>
  <path id="path16" class="cls-1" d="m437.13,187.27h-29.15v-.09l-.03.09h-10.64c6.51-4.67,10.64-24.91,10.64-59.17l.03.17v-16.54l-.03.17c0-34.26-4.13-54.49-10.64-59.17h10.64l.03.09v-.09h18.52v77.91c.2,32.72,4.29,52.07,10.63,56.63h0Zm-66.28-122.85l-45.33,118.72-1.57,4.14h-3.69l-28.57-75.38c-11.96-31.56-21.37-50.65-33.06-59.16h39.79c-6.51,4.67,1.79,32.78,11.79,59.17l19.32,50.96.03.07,39.54-103.59C389.63,5.56,402.57,0,429.86,0l-10,34.36c-20.69-20.69-31.72-15.94-49.01,30.06"/>
  <path id="path18" class="cls-1" d="m528.62,192.52c-44.64,0-80.83-43.1-80.83-96.26S483.98,0,528.62,0c25.26,0,26.59,5.25,48.33,5.25v36.65c-10.6-22.82-27.85-38.23-48.33-38.23-34.41,0-59.69,43.48-59.69,92.59s25.27,92.59,59.69,92.59c24.94,0,46.06-13.41,59.86-33.75l2.94,1.76c-14.82,21.75-37.45,35.66-62.8,35.66"/>
  <path id="path20" class="cls-1" d="m697.02,173.82c-2.49-5.46-3.17-12.09-3.17-18.91v-67.95c-32.13,12.29-71.01,33.87-71.01,69.4,0,18.87,12.56,31.87,29.21,31.87,12.82,0,28.59-4.76,44.97-14.42h0Zm143.1-123.56l-7.26,10.3c-4.74-2.84-10.24-4.17-15.73-4.17-27.91,0-43.56,22.98-43.56,57.78v16.47c.2,32.73,4.28,52.08,10.63,56.64h-29.15v-.09l-.03.09h-10.64c6.51-4.67,10.64-24.91,10.64-59.17l.03.17v-4.32c-12.29,17.78-26.3,32.31-40.93,43.34,1.44,9.97,4.05,16.35,8.87,19.98-12.55,0-19.84-3.92-23.99-9.94-17.31,9.99-34.95,15.19-51.24,15.19-28.71,0-47.9-16.21-47.9-36.15,0-42.3,55.52-62.2,93.99-73.19v-.31c0-22.93-10.48-31.71-25.31-31.71-.03,0-.05,0-.08,0h0c-13.43,0-25.46,6.62-35.14,17.61l-13.15-15.97-.04-.06c21.74,0,29.52-5.25,48.33-5.25,34.65,0,43.91,16.45,43.91,35.39v48.78c.11,12.53.36,22.71,1.17,30.87,14.46-11.3,28.81-26.37,41.5-45.29v-5.33c0-34.26-4.16-54.49-10.67-59.17h10.64l.03.09v-.09h18.52v34.21c6.99-23.26,23.47-39.46,47.85-39.46,7.32,0,13.5,1.01,18.71,2.78"/>
  <path id="path22" class="cls-1" d="m859.76,88.82h72.29c-.21-19.85-11.22-37.66-31.44-37.66-17.83,0-33.27,15.31-40.84,37.66h0Zm102.2,64.75c-11.61,18.75-34.69,38.95-61.35,38.95-38.22,0-69.2-32.47-69.2-72.52s30.98-72.52,69.2-72.52h0c31.41,0,51.11,21.9,52.35,45.01h-20.99s-73.36,0-73.36,0c-2.45,8.43-3.81,17.73-3.81,27.51,0,38.03,20.5,68.85,45.8,68.85s44.95-15.6,58.42-36.8l2.94,1.52"/>
</svg>